<mxfile host="app.diagrams.net" modified="2024-04-04T02:46:25.493Z" agent="Mozilla/5.0 (Windows NT 10.0; Win64; x64) AppleWebKit/537.36 (KHTML, like Gecko) Chrome/123.0.0.0 Safari/537.36" etag="PRK-Lwj2el87MwF1TeBP" version="24.2.2" type="device">
  <diagram name="P치gina-1" id="1ZQL4ox1TZWAaDCrBExm">
    <mxGraphModel dx="607" dy="317" grid="1" gridSize="10" guides="1" tooltips="1" connect="1" arrows="1" fold="1" page="1" pageScale="1" pageWidth="827" pageHeight="1169" math="0" shadow="0">
      <root>
        <mxCell id="0" />
        <mxCell id="1" parent="0" />
        <mxCell id="wEHtUeuVaetyc2k2D5XP-2" value="" style="rounded=0;whiteSpace=wrap;html=1;" vertex="1" parent="1">
          <mxGeometry x="239" y="60" width="420" height="450" as="geometry" />
        </mxCell>
        <mxCell id="wEHtUeuVaetyc2k2D5XP-12" style="edgeStyle=orthogonalEdgeStyle;rounded=0;orthogonalLoop=1;jettySize=auto;html=1;exitX=0.5;exitY=0.5;exitDx=0;exitDy=0;exitPerimeter=0;entryX=0;entryY=0.5;entryDx=0;entryDy=0;endArrow=none;endFill=0;" edge="1" parent="1" source="wEHtUeuVaetyc2k2D5XP-1" target="wEHtUeuVaetyc2k2D5XP-8">
          <mxGeometry relative="1" as="geometry" />
        </mxCell>
        <mxCell id="wEHtUeuVaetyc2k2D5XP-13" style="edgeStyle=orthogonalEdgeStyle;rounded=0;orthogonalLoop=1;jettySize=auto;html=1;exitX=0.5;exitY=0.5;exitDx=0;exitDy=0;exitPerimeter=0;entryX=0;entryY=0.5;entryDx=0;entryDy=0;endArrow=none;endFill=0;" edge="1" parent="1" source="wEHtUeuVaetyc2k2D5XP-1" target="wEHtUeuVaetyc2k2D5XP-9">
          <mxGeometry relative="1" as="geometry">
            <Array as="points">
              <mxPoint x="259" y="130" />
              <mxPoint x="259" y="215" />
            </Array>
          </mxGeometry>
        </mxCell>
        <mxCell id="wEHtUeuVaetyc2k2D5XP-17" style="edgeStyle=orthogonalEdgeStyle;rounded=0;orthogonalLoop=1;jettySize=auto;html=1;exitX=0.5;exitY=0.5;exitDx=0;exitDy=0;exitPerimeter=0;entryX=0;entryY=0.5;entryDx=0;entryDy=0;endArrow=none;endFill=0;" edge="1" parent="1" source="wEHtUeuVaetyc2k2D5XP-1" target="wEHtUeuVaetyc2k2D5XP-16">
          <mxGeometry relative="1" as="geometry">
            <Array as="points">
              <mxPoint x="259" y="130" />
              <mxPoint x="259" y="95" />
            </Array>
          </mxGeometry>
        </mxCell>
        <mxCell id="wEHtUeuVaetyc2k2D5XP-1" value="Cliente" style="shape=umlActor;verticalLabelPosition=bottom;verticalAlign=top;html=1;outlineConnect=0;" vertex="1" parent="1">
          <mxGeometry x="169" y="100" width="30" height="60" as="geometry" />
        </mxCell>
        <mxCell id="wEHtUeuVaetyc2k2D5XP-3" value="Sistema amigo pet" style="text;html=1;align=center;verticalAlign=middle;whiteSpace=wrap;rounded=0;" vertex="1" parent="1">
          <mxGeometry x="419" y="20" width="60" height="30" as="geometry" />
        </mxCell>
        <mxCell id="wEHtUeuVaetyc2k2D5XP-6" value="" style="edgeStyle=orthogonalEdgeStyle;rounded=0;orthogonalLoop=1;jettySize=auto;html=1;" edge="1" parent="1" source="wEHtUeuVaetyc2k2D5XP-4" target="wEHtUeuVaetyc2k2D5XP-5">
          <mxGeometry relative="1" as="geometry" />
        </mxCell>
        <mxCell id="wEHtUeuVaetyc2k2D5XP-23" style="edgeStyle=orthogonalEdgeStyle;rounded=0;orthogonalLoop=1;jettySize=auto;html=1;exitX=0.5;exitY=0.5;exitDx=0;exitDy=0;exitPerimeter=0;entryX=0;entryY=0.5;entryDx=0;entryDy=0;endArrow=none;endFill=0;" edge="1" parent="1" source="wEHtUeuVaetyc2k2D5XP-4" target="wEHtUeuVaetyc2k2D5XP-22">
          <mxGeometry relative="1" as="geometry">
            <Array as="points">
              <mxPoint x="259" y="430" />
              <mxPoint x="259" y="475" />
            </Array>
          </mxGeometry>
        </mxCell>
        <mxCell id="wEHtUeuVaetyc2k2D5XP-4" value="Administrador" style="shape=umlActor;verticalLabelPosition=bottom;verticalAlign=top;html=1;outlineConnect=0;" vertex="1" parent="1">
          <mxGeometry x="169" y="400" width="30" height="60" as="geometry" />
        </mxCell>
        <mxCell id="wEHtUeuVaetyc2k2D5XP-7" value="" style="edgeStyle=orthogonalEdgeStyle;rounded=0;orthogonalLoop=1;jettySize=auto;html=1;" edge="1" parent="1" source="wEHtUeuVaetyc2k2D5XP-5" target="wEHtUeuVaetyc2k2D5XP-1">
          <mxGeometry relative="1" as="geometry" />
        </mxCell>
        <mxCell id="wEHtUeuVaetyc2k2D5XP-18" style="edgeStyle=orthogonalEdgeStyle;rounded=0;orthogonalLoop=1;jettySize=auto;html=1;exitX=0.5;exitY=0.5;exitDx=0;exitDy=0;exitPerimeter=0;entryX=0;entryY=0.5;entryDx=0;entryDy=0;endArrow=none;endFill=0;" edge="1" parent="1" source="wEHtUeuVaetyc2k2D5XP-5" target="wEHtUeuVaetyc2k2D5XP-14">
          <mxGeometry relative="1" as="geometry" />
        </mxCell>
        <mxCell id="wEHtUeuVaetyc2k2D5XP-19" style="edgeStyle=orthogonalEdgeStyle;rounded=0;orthogonalLoop=1;jettySize=auto;html=1;exitX=0.5;exitY=0.5;exitDx=0;exitDy=0;exitPerimeter=0;entryX=0;entryY=0.5;entryDx=0;entryDy=0;endArrow=none;endFill=0;" edge="1" parent="1" source="wEHtUeuVaetyc2k2D5XP-5" target="wEHtUeuVaetyc2k2D5XP-15">
          <mxGeometry relative="1" as="geometry">
            <Array as="points">
              <mxPoint x="259" y="270" />
              <mxPoint x="259" y="355" />
            </Array>
          </mxGeometry>
        </mxCell>
        <mxCell id="wEHtUeuVaetyc2k2D5XP-21" style="edgeStyle=orthogonalEdgeStyle;rounded=0;orthogonalLoop=1;jettySize=auto;html=1;exitX=0.5;exitY=0.5;exitDx=0;exitDy=0;exitPerimeter=0;entryX=0;entryY=0.5;entryDx=0;entryDy=0;endArrow=none;endFill=0;" edge="1" parent="1" source="wEHtUeuVaetyc2k2D5XP-5" target="wEHtUeuVaetyc2k2D5XP-20">
          <mxGeometry relative="1" as="geometry" />
        </mxCell>
        <mxCell id="wEHtUeuVaetyc2k2D5XP-25" style="edgeStyle=orthogonalEdgeStyle;rounded=0;orthogonalLoop=1;jettySize=auto;html=1;exitX=0.5;exitY=0.5;exitDx=0;exitDy=0;exitPerimeter=0;entryX=0;entryY=0.5;entryDx=0;entryDy=0;endArrow=none;endFill=0;" edge="1" parent="1" source="wEHtUeuVaetyc2k2D5XP-5" target="wEHtUeuVaetyc2k2D5XP-24">
          <mxGeometry relative="1" as="geometry">
            <Array as="points">
              <mxPoint x="259" y="270" />
              <mxPoint x="259" y="255" />
            </Array>
          </mxGeometry>
        </mxCell>
        <mxCell id="wEHtUeuVaetyc2k2D5XP-5" value="Funcion치rio" style="shape=umlActor;verticalLabelPosition=bottom;verticalAlign=top;html=1;outlineConnect=0;" vertex="1" parent="1">
          <mxGeometry x="169" y="240" width="30" height="60" as="geometry" />
        </mxCell>
        <mxCell id="wEHtUeuVaetyc2k2D5XP-8" value="Cadastrar cliente" style="ellipse;whiteSpace=wrap;html=1;" vertex="1" parent="1">
          <mxGeometry x="319" y="130" width="90" height="50" as="geometry" />
        </mxCell>
        <mxCell id="wEHtUeuVaetyc2k2D5XP-9" value="Cadastrar Pet" style="ellipse;whiteSpace=wrap;html=1;" vertex="1" parent="1">
          <mxGeometry x="321.5" y="190" width="85" height="50" as="geometry" />
        </mxCell>
        <mxCell id="wEHtUeuVaetyc2k2D5XP-30" style="edgeStyle=orthogonalEdgeStyle;rounded=0;orthogonalLoop=1;jettySize=auto;html=1;entryX=0.5;entryY=0;entryDx=0;entryDy=0;dashed=1;endArrow=none;endFill=0;" edge="1" parent="1" source="wEHtUeuVaetyc2k2D5XP-14" target="wEHtUeuVaetyc2k2D5XP-15">
          <mxGeometry relative="1" as="geometry">
            <Array as="points">
              <mxPoint x="449" y="295" />
            </Array>
          </mxGeometry>
        </mxCell>
        <mxCell id="wEHtUeuVaetyc2k2D5XP-31" value="&amp;lt;extends&amp;gt;" style="edgeLabel;html=1;align=center;verticalAlign=middle;resizable=0;points=[];" vertex="1" connectable="0" parent="wEHtUeuVaetyc2k2D5XP-30">
          <mxGeometry x="-0.0608" relative="1" as="geometry">
            <mxPoint as="offset" />
          </mxGeometry>
        </mxCell>
        <mxCell id="wEHtUeuVaetyc2k2D5XP-14" value="Excluir ciente" style="ellipse;whiteSpace=wrap;html=1;" vertex="1" parent="1">
          <mxGeometry x="316.5" y="270" width="95" height="50" as="geometry" />
        </mxCell>
        <mxCell id="wEHtUeuVaetyc2k2D5XP-15" value="Excluir pet" style="ellipse;whiteSpace=wrap;html=1;" vertex="1" parent="1">
          <mxGeometry x="401.5" y="330" width="95" height="50" as="geometry" />
        </mxCell>
        <mxCell id="wEHtUeuVaetyc2k2D5XP-16" value="Agendar hor치rio" style="ellipse;whiteSpace=wrap;html=1;" vertex="1" parent="1">
          <mxGeometry x="316.5" y="70" width="90" height="50" as="geometry" />
        </mxCell>
        <mxCell id="wEHtUeuVaetyc2k2D5XP-20" value="Excluir agendamento" style="ellipse;whiteSpace=wrap;html=1;" vertex="1" parent="1">
          <mxGeometry x="316.5" y="390" width="95" height="50" as="geometry" />
        </mxCell>
        <mxCell id="wEHtUeuVaetyc2k2D5XP-22" value="Cadastrar funcion치rios" style="ellipse;whiteSpace=wrap;html=1;" vertex="1" parent="1">
          <mxGeometry x="311.5" y="450" width="95" height="50" as="geometry" />
        </mxCell>
        <mxCell id="wEHtUeuVaetyc2k2D5XP-28" style="edgeStyle=orthogonalEdgeStyle;rounded=0;orthogonalLoop=1;jettySize=auto;html=1;exitX=0.5;exitY=0;exitDx=0;exitDy=0;entryX=1;entryY=0.5;entryDx=0;entryDy=0;dashed=1;endArrow=none;endFill=0;" edge="1" parent="1" source="wEHtUeuVaetyc2k2D5XP-24" target="wEHtUeuVaetyc2k2D5XP-16">
          <mxGeometry relative="1" as="geometry" />
        </mxCell>
        <mxCell id="wEHtUeuVaetyc2k2D5XP-29" value="&amp;lt;extends&amp;gt;" style="edgeLabel;html=1;align=center;verticalAlign=middle;resizable=0;points=[];" vertex="1" connectable="0" parent="wEHtUeuVaetyc2k2D5XP-28">
          <mxGeometry x="-0.1814" y="-3" relative="1" as="geometry">
            <mxPoint as="offset" />
          </mxGeometry>
        </mxCell>
        <mxCell id="wEHtUeuVaetyc2k2D5XP-24" value="Acessar dados dos clientes" style="ellipse;whiteSpace=wrap;html=1;" vertex="1" parent="1">
          <mxGeometry x="439" y="230" width="95" height="50" as="geometry" />
        </mxCell>
      </root>
    </mxGraphModel>
  </diagram>
</mxfile>
